<?xml version="1.0" encoding="UTF-8" standalone="no"?>
<!-- Created with Inkscape (http://www.inkscape.org/) -->

<svg
   width="210mm"
   height="297mm"
   viewBox="0 0 210 297"
   version="1.1"
   id="svg5"
   inkscape:version="1.1.1 (3bf5ae0d25, 2021-09-20)"
   sodipodi:docname="logo.svg"
   xmlns:inkscape="http://www.inkscape.org/namespaces/inkscape"
   xmlns:sodipodi="http://sodipodi.sourceforge.net/DTD/sodipodi-0.dtd"
   xmlns="http://www.w3.org/2000/svg"
   xmlns:svg="http://www.w3.org/2000/svg">
  <sodipodi:namedview
     id="namedview7"
     pagecolor="#505050"
     bordercolor="#eeeeee"
     borderopacity="1"
     inkscape:pageshadow="0"
     inkscape:pageopacity="0"
     inkscape:pagecheckerboard="0"
     inkscape:document-units="mm"
     showgrid="false"
     inkscape:zoom="1"
     inkscape:cx="331"
     inkscape:cy="353.5"
     inkscape:window-width="1366"
     inkscape:window-height="705"
     inkscape:window-x="-8"
     inkscape:window-y="-8"
     inkscape:window-maximized="1"
     inkscape:current-layer="text1244" />
  <defs
     id="defs2" />
  <g
     inkscape:label="Warstwa 1"
     inkscape:groupmode="layer"
     id="layer1">
    <g
       aria-label="H A N G M A N"
       id="text1244"
       style="font-weight:900;font-size:14.3029px;line-height:1.25;font-family:Montserrat;-inkscape-font-specification:'Montserrat Heavy';stroke-width:0.297976">
      <path
         id="path6404"
         style="stroke-width:0.297976"
         d="m 60.92703,80.378 -4.376476,10.011794 h 3.432347 l 0.456303,-1.183392 0.06305,-0.16433 1.085723,-2.828769 h -0.0031 l 0.97255,-2.517158 0.660424,1.708938 0.02016,0.05271 0.29197,0.755509 h -0.0021 l 1.148249,2.993099 0.455787,1.183392 h 3.490227 L 64.245174,80.378 Z"
         inkscape:export-filename="C:\Users\48515\Desktop\logo.png"
         inkscape:export-xdpi="96"
         inkscape:export-ydpi="96" />
      <path
         d="M 83.325347,82.378 V 92.39003 H 80.550585 L 76.746013,87.841708 V 92.39003 H 73.456346 V 82.378 h 2.774763 l 3.804571,4.548322 V 82.378 Z"
         id="path6406"
         inkscape:export-filename="C:\Users\48515\Desktop\logo.png"
         inkscape:export-xdpi="96"
         inkscape:export-ydpi="96" />
      <path
         d="m 95.868966,84.112106 h 2.932094 v 4.233659 q -0.88678,0.615024 -2.059617,0.943991 -1.172838,0.328967 -2.302767,0.328967 -1.601925,0 -2.874883,-0.657934 -1.272958,-0.672236 -2.002406,-1.859377 -0.715145,-1.201443 -0.715145,-2.717551 0,-1.516107 0.715145,-2.703248 0.729448,-1.201444 2.016709,-1.859377 Q 92.87966,79.149 94.51019,79.149 q 1.473199,0 2.631734,0.500601 1.172838,0.486299 1.945194,1.43029 l -2.159738,1.902286 q -0.943991,-1.101323 -2.245555,-1.101323 -1.115626,0 -1.77356,0.672236 -0.657933,0.672236 -0.657933,1.830771 0,1.129929 0.64363,1.816468 0.657934,0.68654 1.744954,0.68654 0.643631,0 1.23005,-0.24315 z"
         id="path6408"
         inkscape:export-filename="C:\Users\48515\Desktop\logo.png"
         inkscape:export-xdpi="96"
         inkscape:export-ydpi="96" />
      <path
         d="m 113.47581,92.39003 -0.0286,-4.562625 -2.17405,3.661543 h -1.4875 l -2.17404,-3.504211 V 92.39003 H 104.5365 V 82.378 h 2.77476 l 3.26106,5.334982 3.17525,-5.334982 h 2.77476 l 0.0286,10.01203 z"
         id="path6410"
         inkscape:export-filename="C:\Users\48515\Desktop\logo.png"
         inkscape:export-xdpi="96"
         inkscape:export-ydpi="96" />
      <path
         id="path6412"
         style="stroke-width:0.297976"
         d="m 125.76183,80.378 -4.37648,10.011794 h 3.43287 l 0.67179,-1.744597 h 0.005 l 0.93328,-2.431894 h -0.008 l 0.97307,-2.517158 0.66042,1.708938 h 0.005 l 1.45831,3.801319 h -0.005 l 0.45579,1.183392 h 3.48971 L 129.08049,80.378 Z"
         inkscape:export-filename="C:\Users\48515\Desktop\logo.png"
         inkscape:export-xdpi="96"
         inkscape:export-ydpi="96" />
      <path
         d="m 148.1603,81.377931 v 10.01203 h -2.77476 l -3.80458,-4.548322 v 4.548322 h -3.28966 v -10.01203 h 2.77476 l 3.80457,4.548322 v -4.548322 z"
         id="path6414"
         inkscape:export-filename="C:\Users\48515\Desktop\logo.png"
         inkscape:export-xdpi="96"
         inkscape:export-ydpi="96" />
    </g>
    <g
       id="g6632"
       inkscape:export-filename="C:\Users\48515\Desktop\logo.png"
       inkscape:export-xdpi="96"
       inkscape:export-ydpi="96">
      <path
         id="path6402"
         style="font-weight:900;font-size:14.3029px;line-height:1.25;font-family:Montserrat;-inkscape-font-specification:'Montserrat Heavy';stroke-width:1.12621"
         d="M 158.16211 307.57031 L 158.16211 345.41016 L 170.91992 345.41016 L 170.91992 331.46289 L 182.70508 331.46289 L 182.70508 345.41016 L 195.46289 345.41016 L 195.46289 307.57031 L 190.19531 307.57031 L 190.19531 322.78906 A 3.643374 3.643374 0 0 1 192.69531 326.24609 A 3.643374 3.643374 0 0 1 189.05078 329.88867 A 3.643374 3.643374 0 0 1 185.4082 326.24609 A 3.643374 3.643374 0 0 1 187.90625 322.79102 L 187.90625 307.57031 L 182.70508 307.57031 L 182.70508 320.97656 L 170.91992 320.97656 L 170.91992 307.57031 L 165.67773 307.57031 L 165.67773 322.78906 A 3.643374 3.643374 0 0 1 168.17578 326.24609 A 3.643374 3.643374 0 0 1 164.5332 329.88867 A 3.643374 3.643374 0 0 1 160.88867 326.24609 A 3.643374 3.643374 0 0 1 163.38867 322.79102 L 163.38867 307.57031 L 158.16211 307.57031 z "
         transform="scale(0.26458333)" />
      <circle
         style="fill:#000000;fill-opacity:1;stroke:none;stroke-width:0.073703"
         id="circle6038"
         cx="43.532631"
         cy="86.319199"
         r="0.6105926" />
      <circle
         style="fill:#000000;fill-opacity:1;stroke:none;stroke-width:0.073703"
         id="circle6400"
         cx="50.019741"
         cy="86.319199"
         r="0.6105926" />
    </g>
  </g>
</svg>
